<?xml version="1.0" encoding="UTF-8"?>
<!-- Created with Inkscape (http://www.inkscape.org/) -->
<svg width="370" height="222" version="1.1" viewBox="0 0 97.896 58.737" xmlns="http://www.w3.org/2000/svg" xmlns:xlink="http://www.w3.org/1999/xlink">
 <defs>
  <linearGradient id="linearGradient40">
   <stop stop-opacity=".49558" offset="0"/>
   <stop stop-opacity="0" offset="1"/>
  </linearGradient>
  <linearGradient id="linearGradient6561" x1="196.81" x2="200.69" y1="1107.1" y2="525.34" gradientTransform="matrix(.26509 0 0 .1981 552.8 133.02)" gradientUnits="userSpaceOnUse" xlink:href="#linearGradient40"/>
  <linearGradient id="linearGradient39" x1="196.81" x2="200.69" y1="1107.1" y2="525.34" gradientTransform="matrix(.24313 0 0 .1983 249.49 49.116)" gradientUnits="userSpaceOnUse" xlink:href="#linearGradient40"/>
  <linearGradient id="linearGradient41" x1="196.81" x2="200.69" y1="1107.1" y2="525.34" gradientTransform="matrix(.24313 0 0 .1983 242.23 56.378)" gradientUnits="userSpaceOnUse" xlink:href="#linearGradient40"/>
 </defs>
 <g transform="translate(-251.25 -146.84)" stroke="#000">
  <g transform="matrix(.91715 0 0 1.001 -250.14 -90.009)" stroke-width="1.1458">
   <path d="m559.63 237.71h92.548v34.79c-33.584-3.2428-62.134 22.319-92.982 6.4619z" fill="#f8ca12"/>
   <path d="m559.63 237.71h92.548v34.79c-33.584-3.2428-62.134 22.319-92.982 6.4619z" fill="url(#linearGradient6561)"/>
  </g>
  <g transform="translate(2.1167 -1.0583)" stroke-width="1.0979">
   <path d="m255.76 153.91h84.881v34.826c-30.802-3.2461-56.986 22.342-85.279 6.4686z" fill="#969696"/>
   <path d="m255.76 153.91h84.881v34.826c-30.802-3.2461-56.986 22.342-85.279 6.4686z" fill="url(#linearGradient39)"/>
  </g>
  <g transform="translate(4.2333 -3.175)" stroke-width="1.0979">
   <path d="m248.49 161.18h84.881v34.826c-30.802-3.2462-56.986 22.342-85.279 6.4686z" fill="#edc676"/>
   <path d="m248.49 161.18h84.881v34.826c-30.802-3.2462-56.986 22.342-85.279 6.4686z" fill="url(#linearGradient41)"/>
  </g>
 </g>
</svg>
