<?xml version="1.0" encoding="UTF-8"?>
<!-- Created with Inkscape (http://www.inkscape.org/) -->
<svg width="312" height="220" version="1.1" viewBox="0 0 82.55 58.208" xmlns="http://www.w3.org/2000/svg" xmlns:xlink="http://www.w3.org/1999/xlink">
 <g transform="matrix(0 1.0573 -1.4964 0 212.29 -194.84)">
  <g fill="#25ae88">
   <path d="m238.46 131.02c3e-5 5.5325-11.842 10.017-26.452 10.017s-26.452-4.484-26.452-10.017c0-5.5325 11.842-10.017 26.452-10.017s26.452 4.4843 26.452 10.017" stroke="#000" stroke-width=".94981"/>
   <rect x="185.65" y="103.03" width="52.761" height="27.701"/>
   <path d="m238.16 102.32c3e-5 5.5325-11.842 10.017-26.452 10.017s-26.452-4.484-26.452-10.017c0-5.5325 11.842-10.017 26.452-10.017s26.452 4.4843 26.452 10.017" stroke="#000" stroke-width=".94981"/>
   <path d="m238.16 99.828c3e-5 5.5325-11.842 10.017-26.452 10.017s-26.452-4.484-26.452-10.017c0-5.5325 11.842-10.017 26.452-10.017s26.452 4.4843 26.452 10.017" stroke="#000" stroke-width=".94981"/>
  </g>
  <g stroke="#000" stroke-width=".94981">
   <path d="m238.16 97.404c3e-5 5.5325-11.842 10.017-26.452 10.017s-26.452-4.484-26.452-10.017c0-5.5325 11.843-10.017 26.452-10.017 14.61 0 26.452 4.4843 26.452 10.017" fill="#ed7161"/>
   <path d="m238.06 103.19 0.32512 27.695" fill="#25ae88"/>
   <path d="m185.27 103.19 0.32512 27.695" fill="#25ae88"/>
  </g>
 </g>
</svg>
