<?xml version="1.0" encoding="UTF-8"?>
<!-- Created with Inkscape (http://www.inkscape.org/) -->
<svg width="218" height="212" version="1.1" viewBox="0 0 57.679 56.092" xmlns="http://www.w3.org/2000/svg" xmlns:xlink="http://www.w3.org/1999/xlink">
 <defs>
  <linearGradient id="linearGradient22" x1="-192.92" x2="-193.21" y1="1463" y2="885.12" gradientTransform="matrix(.32215 0 0 .32215 1056.1 98.196)" gradientUnits="userSpaceOnUse">
   <stop stop-opacity=".49558" offset="0"/>
   <stop stop-opacity="0" offset="1"/>
  </linearGradient>
 </defs>
 <g transform="matrix(.69353 0 0 .69353 -661.34 -264.98)">
  <path d="m955.16 423.13a38.882 38.882 0 0 1 38.243-39.472 38.882 38.882 0 0 1 39.51 38.203 38.882 38.882 0 0 1-38.163 39.549 38.882 38.882 0 0 1-39.588-38.123" fill="#ffd92f" stroke="#777" stroke-width="1.6107"/>
  <path d="m994.2 461.7h42.15" stroke="#000" stroke-width="1.0454"/>
  <path d="m955.18 423.12a38.882 38.882 0 0 1 38.243-39.472 38.882 38.882 0 0 1 39.51 38.203 38.882 38.882 0 0 1-38.163 39.549 38.882 38.882 0 0 1-39.588-38.123" fill="url(#linearGradient22)" stroke="#000" stroke-width="1.6107"/>
 </g>
</svg>
