<?xml version="1.0" encoding="UTF-8"?>
<!-- Created with Inkscape (http://www.inkscape.org/) -->
<svg width="292" height="292" version="1.1" viewBox="0 0 77.258 77.258" xmlns="http://www.w3.org/2000/svg" xmlns:xlink="http://www.w3.org/1999/xlink">
 <defs>
  <linearGradient id="linearGradient37-6" x1="-192.92" x2="-193.21" y1="1463" y2="885.12" gradientTransform="matrix(.32215 0 0 .32215 724.54 14.199)" gradientUnits="userSpaceOnUse">
   <stop stop-opacity=".49558" offset="0"/>
   <stop stop-opacity="0" offset="1"/>
  </linearGradient>
 </defs>
 <g transform="matrix(.95807 0 0 .95807 -596.2 -285.78)">
  <g stroke="#777">
   <path transform="rotate(-44.481)" d="m196.63 706.34a38.882 38.882 0 0 1 38.243-39.472 38.882 38.882 0 0 1 39.51 38.203 38.882 38.882 0 0 1-38.163 39.549 38.882 38.882 0 0 1-39.588-38.123" fill="#ffa07a" stroke-width="1.6107"/>
   <path d="m635.39 310.9 54.267 55.259" fill="#adff2f" stroke-width="1.2176"/>
   <path d="m634.9 365.66 55.259-54.267" fill="#adff2f" stroke-width="1.2176"/>
  </g>
  <path d="m623.65 339.12a38.882 38.882 0 0 1 38.243-39.472 38.882 38.882 0 0 1 39.51 38.203 38.882 38.882 0 0 1-38.163 39.549 38.882 38.882 0 0 1-39.588-38.123" fill="url(#linearGradient37-6)" stroke="#000" stroke-width="1.6107"/>
 </g>
</svg>
